<svg xmlns="http://www.w3.org/2000/svg" xmlns:xlink="http://www.w3.org/1999/xlink" aria-hidden="true" focusable="false" width="1em" height="1em" style="-ms-transform: rotate(360deg); -webkit-transform: rotate(360deg); transform: rotate(360deg);" preserveAspectRatio="xMidYMid meet" viewBox="0 0 24 24" class="sc-fzoXWK jeZVjO iconify" data-inline="false" data-icon="mdi-light:file-multiple"><path fill="currentColor" d="M15 11a3 3 0 0 1-3-3V4H8a2 2 0 0 0-2 2v13a2 2 0 0 0 2 2h9a2 2 0 0 0 2-2v-8h-4m-2-3a2 2 0 0 0 2 2h3.59L13 4.41V8M8 3h5l7 7v9a3 3 0 0 1-3 3H8a3 3 0 0 1-3-3V6a3 3 0 0 1 3-3m0 21a5 5 0 0 1-5-5V7h1v12a4 4 0 0 0 4 4h8v1H8Z"></path></svg>